<?xml version="1.0" encoding="iso-8859-1"?>
<!-- Generator: Adobe Illustrator 24.1.0, SVG Export Plug-In . SVG Version: 6.00 Build 0)  -->
<svg version="1.1" id="&#x56FE;&#x5C42;_1" xmlns="http://www.w3.org/2000/svg" xmlns:xlink="http://www.w3.org/1999/xlink" x="0px" y="0px" viewBox="0 0 220 220" style="" xml:space="preserve">
    <g>
        <linearGradient id="SVGID_1_" gradientUnits="userSpaceOnUse" x1="51.464" y1="149.2875" x2="148.9153" y2="82.9623">
            <stop offset="0.0116" style="stop-color:#008D75" />
            <stop offset="0.4647" style="stop-color:#009B6C" />
            <stop offset="1" style="stop-color:#00A764" />
        </linearGradient>
        <path style="fill:url(#SVGID_1_);" d="M39.407,147.872c3.204-4.3,23.801-31.831,29.506-36.585c6.192-5.16,12.383-5.16,17.543,0
		c5.16,5.16,12.383,22.703,13.415,22.703c1.032,0,3.096-10.319,4.128-12.383c1.032-2.064,4.128-5.16,8.256-1.032
		c4.128,4.128,8.255,17.543,11.351,17.543c3.096,0,2.285-14.017,6.192-17.543c2.78-2.509,10.361-3.628,16.048,11.187l5.879-6.519
		c-3.665-4.166-14.43-17.276-18.831-16.019c-7.224,2.064-10.32,13.415-11.352,13.415c-1.032,0-6.191-20.639-13.415-20.639
		s-6.192,6.192-8.255,7.224c-2.064,1.032-13.415-28.895-21.671-24.767c-7.813,3.906-38.726,43.85-43.769,49.874L39.407,147.872z" />
        <g>
            <linearGradient id="SVGID_2_" gradientUnits="userSpaceOnUse" x1="182.0774" y1="97.5654" x2="197.0774" y2="97.5654">
                <stop offset="0" style="stop-color:#008D87" />
                <stop offset="0.4584" style="stop-color:#009B7A" />
                <stop offset="1" style="stop-color:#00A76E" />
            </linearGradient>
            <circle style="fill:url(#SVGID_2_);" cx="189.577" cy="97.565" r="7.5" />
            <linearGradient id="SVGID_3_" gradientUnits="userSpaceOnUse" x1="165.5774" y1="97.5654" x2="176.5774" y2="97.5654">
                <stop offset="0" style="stop-color:#008D87" />
                <stop offset="0.4584" style="stop-color:#009B7A" />
                <stop offset="1" style="stop-color:#00A76E" />
            </linearGradient>
            <circle style="fill:url(#SVGID_3_);" cx="171.077" cy="97.565" r="5.5" />
            <linearGradient id="SVGID_4_" gradientUnits="userSpaceOnUse" x1="149.0774" y1="97.5654" x2="156.0774" y2="97.5654">
                <stop offset="0" style="stop-color:#008D87" />
                <stop offset="0.4584" style="stop-color:#009B7A" />
                <stop offset="1" style="stop-color:#00A76E" />
            </linearGradient>
            <circle style="fill:url(#SVGID_4_);" cx="152.577" cy="97.565" r="3.5" />
        </g>
        <g>
            <linearGradient id="SVGID_5_" gradientUnits="userSpaceOnUse" x1="174.5864" y1="62.7152" x2="189.59" y2="62.7152">
                <stop offset="0" style="stop-color:#008D87" />
                <stop offset="0.4584" style="stop-color:#009B7A" />
                <stop offset="1" style="stop-color:#00A76E" />
            </linearGradient>
            <circle style="fill:url(#SVGID_5_);" cx="182.088" cy="62.715" r="7.5" />
            <linearGradient id="SVGID_6_" gradientUnits="userSpaceOnUse" x1="159.7566" y1="70.3958" x2="170.7592" y2="70.3958">
                <stop offset="0" style="stop-color:#008D87" />
                <stop offset="0.4584" style="stop-color:#009B7A" />
                <stop offset="1" style="stop-color:#00A76E" />
            </linearGradient>
            <circle style="fill:url(#SVGID_6_);" cx="165.258" cy="70.396" r="5.5" />
            <linearGradient id="SVGID_7_" gradientUnits="userSpaceOnUse" x1="144.9267" y1="78.0763" x2="151.9285" y2="78.0763">
                <stop offset="0" style="stop-color:#008D87" />
                <stop offset="0.4584" style="stop-color:#009B7A" />
                <stop offset="1" style="stop-color:#00A76E" />
            </linearGradient>
            <circle style="fill:url(#SVGID_7_);" cx="148.428" cy="78.076" r="3.5" />
        </g>
        <g>
            <linearGradient id="SVGID_8_" gradientUnits="userSpaceOnUse" x1="155.8122" y1="34.4949" x2="170.8123" y2="34.4949">
                <stop offset="0" style="stop-color:#008D87" />
                <stop offset="0.4584" style="stop-color:#009B7A" />
                <stop offset="1" style="stop-color:#00A76E" />
            </linearGradient>
            <circle style="fill:url(#SVGID_8_);" cx="163.312" cy="34.495" r="7.5" />
            <linearGradient id="SVGID_9_" gradientUnits="userSpaceOnUse" x1="144.0943" y1="46.9073" x2="155.0944" y2="46.9073">
                <stop offset="0" style="stop-color:#008D87" />
                <stop offset="0.4584" style="stop-color:#009B7A" />
                <stop offset="1" style="stop-color:#00A76E" />
            </linearGradient>
            <circle style="fill:url(#SVGID_9_);" cx="149.594" cy="46.907" r="5.5" />
            <linearGradient id="SVGID_10_" gradientUnits="userSpaceOnUse" x1="132.3764" y1="59.3198" x2="139.3765" y2="59.3198">
                <stop offset="0" style="stop-color:#008D87" />
                <stop offset="0.4584" style="stop-color:#009B7A" />
                <stop offset="1" style="stop-color:#00A76E" />
            </linearGradient>
            <circle style="fill:url(#SVGID_10_);" cx="135.876" cy="59.32" r="3.5" />
        </g>
        <g>
            <linearGradient id="SVGID_11_" gradientUnits="userSpaceOnUse" x1="126.8461" y1="14.7535" x2="141.8494" y2="14.7535">
                <stop offset="0" style="stop-color:#008D87" />
                <stop offset="0.4584" style="stop-color:#009B7A" />
                <stop offset="1" style="stop-color:#00A76E" />
            </linearGradient>
            <circle style="fill:url(#SVGID_11_);" cx="134.348" cy="14.754" r="7.5" />
            <linearGradient id="SVGID_12_" gradientUnits="userSpaceOnUse" x1="120.6949" y1="31.3608" x2="131.6974" y2="31.3608">
                <stop offset="0" style="stop-color:#008D87" />
                <stop offset="0.4584" style="stop-color:#009B7A" />
                <stop offset="1" style="stop-color:#00A76E" />
            </linearGradient>
            <circle style="fill:url(#SVGID_12_);" cx="126.196" cy="31.361" r="5.5" />
            <linearGradient id="SVGID_13_" gradientUnits="userSpaceOnUse" x1="114.5437" y1="47.9681" x2="121.5453" y2="47.9681">
                <stop offset="0" style="stop-color:#008D87" />
                <stop offset="0.4584" style="stop-color:#009B7A" />
                <stop offset="1" style="stop-color:#00A76E" />
            </linearGradient>
            <circle style="fill:url(#SVGID_13_);" cx="118.045" cy="47.968" r="3.5" />
        </g>
        <linearGradient id="SVGID_14_" gradientUnits="userSpaceOnUse" x1="1.5774" y1="107.2608" x2="208.8892" y2="107.2608">
            <stop offset="0" style="stop-color:#008D87" />
            <stop offset="0.4584" style="stop-color:#009B7A" />
            <stop offset="1" style="stop-color:#00A76E" />
        </linearGradient>
        <path style="fill:url(#SVGID_14_);" d="M206.069,175.799l-20.942-18.798c-2.999-2.692-3.676-7.111-1.654-10.598
		c3.139-5.413,5.773-11.156,7.837-17.164c1.882-5.48-2.268-11.173-8.062-11.173h-33.961c-3.042,0-5.834,1.637-7.359,4.269
		c-8.962,15.476-26.055,25.654-45.444,24.665c-25.323-1.292-45.791-21.954-46.861-47.288c-1.086-25.701,17.436-47.287,41.841-51.054
		c4.123-0.636,7.114-4.275,7.114-8.447V9.013c0-4.988-4.284-8.954-9.247-8.462C39.591,5.489,0.847,47.801,1.588,99.01
		c0.763,52.738,43.998,95.655,96.74,96.053c14.26,0.107,27.814-2.854,40.051-8.254c3.047-1.345,6.598-0.771,9.077,1.454
		l26.265,23.575c3.491,3.133,8.86,2.844,11.994-0.647l21.003-23.399C209.85,184.302,209.56,178.932,206.069,175.799z" />
    </g>
</svg>