<?xml version="1.0" encoding="iso-8859-1"?>
<!-- Generator: Adobe Illustrator 24.1.0, SVG Export Plug-In . SVG Version: 6.00 Build 0)  -->
<svg version="1.1" id="&#x56FE;&#x5C42;_1" xmlns="http://www.w3.org/2000/svg" xmlns:xlink="http://www.w3.org/1999/xlink" x="0px" y="0px" viewBox="0 0 1173.577 220.911" style="enable-background:new 0 0 1173.577 220.911;" xml:space="preserve">
    <g>
        <g>
            <polygon points="261.494,5.314 241.317,5.314 240.254,13.816 229.504,13.816 229.504,26.537 238.912,26.537 231.548,79.136 
			241.924,86.053 259.262,86.053 259.262,108.404 230.567,108.404 230.567,121.124 259.262,121.124 259.262,146.631 
			283.673,146.631 283.673,121.124 293.238,121.124 293.238,108.404 283.673,108.404 283.673,86.053 293.238,86.053 293.238,72.269 
			283.673,72.269 283.673,34.009 259.262,34.009 259.262,72.269 253.028,72.269 260.142,26.537 293.238,26.537 293.238,13.816 
			260.431,13.816 		" />
            <polygon points="317.06,79.789 365.883,16.861 354.234,6.376 295.396,6.376 295.396,20.161 335.797,20.161 294.62,75.064 		" />
            <polygon points="336.593,58.343 350.153,79.811 371.441,75.079 350.78,41.792 		" />
            <polygon points="295.396,94.555 320.903,94.555 320.903,133.91 295.396,133.91 295.396,146.631 371.883,146.631 371.883,133.91 
			345.314,133.91 345.314,94.555 371.883,94.555 371.883,81.834 295.396,81.834 		" />
            <polygon points="412.279,106.412 474.054,29.726 528.801,29.726 528.801,17.005 506.137,17.005 512.513,5.314 491.087,5.314 
			482.585,17.005 440.119,17.005 432.679,5.314 408.943,5.314 416.382,17.005 391.735,17.005 391.735,29.726 448.079,29.726 
			440.084,40.386 394.924,40.386 394.924,54.17 427.886,54.17 419.891,64.829 390.673,64.829 390.673,77.551 407.592,77.551 
			389.939,99.358 		" />
            <polygon points="459.807,54.17 523.487,54.17 523.487,40.386 469.832,40.386 		" />
            <polygon points="530.927,64.829 449.669,64.829 439.492,77.551 530.927,77.551 		" />
            <polygon points="489.357,81.834 509.316,105.315 531.908,99.371 514.372,81.834 		" />
            <rect x="483.134" y="102.026" width="23.348" height="44.604" />
            <polygon points="416.179,108.186 405.889,133.91 393.861,133.91 393.861,146.631 416.434,146.631 426.577,140.996 
			438.465,108.573 438.465,102.026 416.179,102.026 		" />
            <polygon points="917.761,9.565 873.124,9.565 873.124,23.348 929.725,23.348 941.109,16.518 941.109,6.376 917.761,6.376 		" />
            <polygon points="918.791,25.507 894.38,25.507 894.38,36.134 872.061,36.134 872.061,49.918 894.38,49.918 894.38,146.631 
			918.791,146.631 918.791,49.918 941.109,49.918 941.109,36.134 918.791,36.134 		" />
            <polygon points="920.911,54.201 924.172,145.493 940.074,146.717 937.897,54.201 		" />
            <polygon points="872.026,145.493 888.982,146.704 893.335,54.201 875.286,54.201 		" />
            <polygon points="976.38,56.294 968.574,11.691 948.413,11.691 955.103,56.294 		" />
            <polygon points="973.197,104.119 965.382,60.579 946.251,60.579 954.066,104.119 		" />
            <polygon points="1004.876,5.314 981.527,5.314 981.527,110.529 942.204,110.529 942.204,125.376 981.527,125.376 981.527,146.631 
			1004.876,146.631 1004.876,125.376 1013.378,125.376 1013.378,110.529 1004.876,110.529 		" />
            <polygon points="1071.551,36.102 1086.43,36.102 1086.43,21.255 1071.551,21.255 1071.551,0 1047.139,0 1047.139,21.255 
			1033.324,21.255 1033.324,38.227 1047.139,38.227 1047.139,80.771 1033.324,80.771 1033.324,94.555 1047.139,94.555 
			1047.139,131.784 1034.386,131.784 1034.386,146.631 1060.166,146.631 1071.551,139.801 1071.551,94.555 1088.555,94.555 
			1088.555,80.771 1071.551,80.771 		" />
            <polygon points="1142.757,15.942 1142.757,0 1119.408,0 1119.408,15.942 1087.525,15.942 1087.525,28.663 1119.408,28.663 
			1119.408,48.888 1091.776,48.888 1091.776,62.672 1143.852,62.672 1143.852,96.263 1134.839,105.276 1148.089,116.118 
			1167.201,100.379 1167.201,56.799 1154.768,48.888 1142.757,48.888 1142.757,28.663 1173.577,28.663 1173.577,15.942 		" />
            <polygon points="1118.313,96.197 1118.313,65.892 1094.964,65.892 1094.964,100.366 1116.667,118.968 1099.908,131.784 
			1088.588,131.784 1088.588,146.631 1115.555,146.631 1132.145,131.077 1148.736,146.631 1173.577,146.631 1173.577,131.784 
			1162.274,131.784 		" />
            <polygon points="588.637,5.397 567.655,5.397 567.655,26.984 551.465,26.984 551.465,39.87 567.655,39.87 567.655,86.347 
			551.465,86.347 551.465,99.234 567.655,99.234 567.655,134.917 554.163,134.917 554.163,147.804 579.811,147.804 588.637,141.921 
			588.637,99.234 602.128,99.234 602.128,86.347 588.637,86.347 588.637,39.87 602.128,39.87 602.128,26.984 588.637,26.984 		" />
            <path d="M616.955,75.554l-8.825,5.884v57.659l8.708,8.708h62.844l11.491-8.618V81.351l-11.593-5.797H616.955z M630.461,134.917
			V88.44h35.684v46.477H630.461z" />
            <rect x="608.13" y="56.665" width="83.044" height="12.887" />
            <polygon points="671.588,5.397 627.775,5.397 613.613,13.893 607.957,50.663 628.882,50.663 636.977,18.283 659.691,18.283 
			670.484,50.663 691.443,50.663 682.966,13.93 		" />
            <polygon points="753.998,61.457 737.069,13.492 716.041,13.492 730.149,61.457 		" />
            <polygon points="794.04,5.397 770.36,5.397 770.36,67.459 713.695,67.459 713.695,80.346 737.75,80.346 727.375,132.219 
			710.997,132.219 710.997,147.804 739.46,147.804 748.075,139.189 761.449,80.346 797.344,80.346 797.344,139.186 808.835,147.804 
			850.706,147.804 850.706,134.917 821.024,134.917 821.024,80.346 850.706,80.346 850.706,67.459 794.04,67.459 		" />
            <polygon points="848.44,13.492 824.634,13.492 807.704,61.457 831.511,61.457 		" />
        </g>
        <g>
            <g>
                <rect x="1128.676" y="193.857" width="44.901" height="4.557" />
                <rect x="229.577" y="193.857" width="44.901" height="4.557" />
            </g>
            <g>
                <path d="M309.828,211.503c-2.421,0-4.616-0.411-6.584-1.231c-1.968-0.821-3.648-1.971-5.038-3.451
				c-1.39-1.48-2.468-3.25-3.233-5.31c-0.766-2.06-1.148-4.337-1.148-6.832c0-2.664,0.386-5.081,1.16-7.25
				c0.773-2.169,1.874-4.02,3.304-5.553c1.429-1.534,3.167-2.719,5.214-3.555c2.046-0.837,4.335-1.255,6.865-1.255
				c2.343,0,4.483,0.411,6.42,1.232c1.937,0.821,3.593,1.971,4.967,3.451c1.375,1.479,2.441,3.25,3.198,5.309
				c0.758,2.061,1.137,4.331,1.137,6.809c0,3.285-0.555,6.162-1.664,8.633c-1.109,2.47-2.671,4.458-4.686,5.96l9.747,6.972h-8.482
				l-5.998-4.624c-0.797,0.217-1.625,0.386-2.484,0.511C311.664,211.441,310.765,211.503,309.828,211.503z M310.086,181.922
				c-1.531,0-2.933,0.299-4.206,0.895c-1.273,0.596-2.37,1.44-3.292,2.533c-0.922,1.092-1.637,2.398-2.144,3.916
				c-0.508,1.518-0.761,3.206-0.761,5.066c0,1.844,0.246,3.525,0.738,5.043c0.492,1.519,1.184,2.815,2.074,3.893
				c0.89,1.077,1.96,1.914,3.21,2.51c1.249,0.596,2.632,0.894,4.147,0.894c1.609,0,3.054-0.279,4.335-0.837
				c1.281-0.558,2.37-1.359,3.269-2.404c0.898-1.046,1.589-2.328,2.073-3.847c0.484-1.518,0.726-3.245,0.726-5.181
				c0-1.983-0.234-3.749-0.703-5.298c-0.469-1.549-1.14-2.854-2.015-3.916c-0.875-1.061-1.941-1.871-3.198-2.428
				C313.081,182.201,311.664,181.922,310.086,181.922z" />
                <path d="M337.969,210.946h-5.741v-33.323h5.741V210.946z" />
                <path d="M374.732,210.946h-6.092l-16.05-24.492c-0.406-0.619-0.742-1.262-1.008-1.929h-0.14c0.125,0.713,0.187,2.239,0.187,4.578
				v21.843h-5.389v-33.323h6.49l15.511,23.911c0.656,0.992,1.078,1.673,1.265,2.045h0.093c-0.156-0.883-0.234-2.378-0.234-4.485
				v-21.471h5.366V210.946z" />
                <path d="M409.269,208.669c-3.499,1.89-7.397,2.835-11.692,2.835c-4.967,0-8.99-1.533-12.067-4.601
				c-3.078-3.067-4.616-7.126-4.616-12.177c0-5.158,1.683-9.391,5.049-12.698c3.366-3.308,7.642-4.962,12.828-4.962
				c3.733,0,6.873,0.542,9.42,1.627v5.693c-2.577-1.704-5.647-2.557-9.208-2.557c-3.577,0-6.51,1.17-8.799,3.509
				c-2.288,2.339-3.433,5.367-3.433,9.086c0,3.826,0.984,6.835,2.953,9.028c1.968,2.193,4.639,3.288,8.013,3.288
				c2.311,0,4.311-0.442,5.998-1.324v-7.924h-7.077v-4.648h12.629V208.669z" />
                <path d="M439.916,177.623l-11.013,21.216v12.107h-5.576v-11.99l-10.731-21.332h6.35l6.608,14.291
				c0.078,0.171,0.312,0.814,0.703,1.929h0.07c0.141-0.495,0.399-1.138,0.773-1.929l6.912-14.291H439.916z" />
                <path d="M468.15,210.946h-6.115l-3.022-8.482h-13.215l-2.905,8.482H436.8l12.582-33.323h6.28L468.15,210.946z M457.536,197.956
				l-4.663-13.291c-0.141-0.434-0.289-1.131-0.445-2.092h-0.094c-0.14,0.884-0.297,1.58-0.469,2.092l-4.616,13.291H457.536z" />
                <path d="M501.258,210.946h-6.092l-16.05-24.492c-0.406-0.619-0.742-1.262-1.008-1.929h-0.14c0.125,0.713,0.187,2.239,0.187,4.578
				v21.843h-5.389v-33.323h6.49l15.511,23.911c0.656,0.992,1.078,1.673,1.265,2.045h0.093c-0.156-0.883-0.234-2.378-0.234-4.485
				v-21.471h5.366V210.946z" />
                <path d="M535.795,208.669c-3.499,1.89-7.397,2.835-11.692,2.835c-4.967,0-8.99-1.533-12.067-4.601
				c-3.078-3.067-4.616-7.126-4.616-12.177c0-5.158,1.683-9.391,5.049-12.698c3.366-3.308,7.642-4.962,12.828-4.962
				c3.734,0,6.873,0.542,9.419,1.627v5.693c-2.577-1.704-5.647-2.557-9.208-2.557c-3.577,0-6.51,1.17-8.799,3.509
				s-3.433,5.367-3.433,9.086c0,3.826,0.984,6.835,2.953,9.028c1.968,2.193,4.639,3.288,8.013,3.288
				c2.311,0,4.311-0.442,5.998-1.324v-7.924h-7.076v-4.648h12.629V208.669z" />
                <path d="M554.681,209.621v-5.693c0.516,0.465,1.128,0.883,1.839,1.254c0.711,0.372,1.464,0.686,2.261,0.941
				c0.796,0.256,1.593,0.453,2.39,0.593c0.796,0.139,1.53,0.209,2.202,0.209c2.344,0,4.089-0.387,5.237-1.161
				c1.148-0.775,1.722-1.898,1.722-3.37c0-0.79-0.191-1.475-0.574-2.056c-0.383-0.581-0.918-1.111-1.605-1.592
				c-0.688-0.479-1.496-0.941-2.425-1.382c-0.93-0.442-1.925-0.903-2.987-1.383c-1.14-0.605-2.203-1.216-3.186-1.836
				c-0.984-0.619-1.839-1.305-2.566-2.056c-0.726-0.751-1.297-1.599-1.711-2.544c-0.414-0.945-0.621-2.053-0.621-3.323
				c0-1.564,0.355-2.924,1.066-4.078c0.711-1.154,1.648-2.107,2.812-2.859c1.164-0.751,2.488-1.309,3.972-1.673
				c1.484-0.363,2.999-0.546,4.546-0.546c3.515,0,6.076,0.396,7.685,1.185v5.461c-1.906-1.364-4.358-2.045-7.357-2.045
				c-0.828,0-1.652,0.078-2.472,0.232c-0.82,0.155-1.555,0.411-2.203,0.767c-0.648,0.356-1.176,0.814-1.582,1.371
				c-0.406,0.558-0.609,1.231-0.609,2.022c0,0.744,0.156,1.387,0.469,1.928c0.312,0.542,0.769,1.039,1.37,1.487
				c0.601,0.449,1.336,0.887,2.203,1.313c0.867,0.426,1.871,0.887,3.011,1.383c1.172,0.605,2.276,1.24,3.315,1.905
				c1.039,0.667,1.953,1.403,2.742,2.208c0.789,0.806,1.414,1.7,1.874,2.684c0.46,0.984,0.691,2.102,0.691,3.358
				c0,1.689-0.344,3.113-1.031,4.275c-0.688,1.162-1.613,2.107-2.777,2.836c-1.164,0.728-2.504,1.254-4.019,1.58
				c-1.515,0.325-3.116,0.488-4.803,0.488c-0.562,0-1.254-0.043-2.074-0.127c-0.82-0.085-1.66-0.21-2.519-0.372
				c-0.859-0.163-1.672-0.36-2.437-0.593C555.766,210.179,555.149,209.916,554.681,209.621z" />
                <path d="M609.345,210.946h-5.6v-14.454h-15.816v14.454h-5.576v-33.323h5.576v14.012h15.816v-14.012h5.6V210.946z" />
                <path d="M623.357,210.946h-5.741v-33.323h5.741V210.946z" />
                <path d="M657.847,208.669c-3.499,1.89-7.397,2.835-11.692,2.835c-4.967,0-8.99-1.533-12.067-4.601
				c-3.078-3.067-4.616-7.126-4.616-12.177c0-5.158,1.683-9.391,5.049-12.698c3.366-3.308,7.642-4.962,12.828-4.962
				c3.734,0,6.873,0.542,9.419,1.627v5.693c-2.577-1.704-5.647-2.557-9.208-2.557c-3.577,0-6.51,1.17-8.799,3.509
				s-3.433,5.367-3.433,9.086c0,3.826,0.984,6.835,2.953,9.028c1.968,2.193,4.639,3.288,8.013,3.288
				c2.311,0,4.311-0.442,5.998-1.324v-7.924h-7.076v-4.648h12.629V208.669z" />
                <path d="M690.931,197.468c0,9.357-4.468,14.035-13.403,14.035c-8.56,0-12.84-4.5-12.84-13.501v-20.379h5.577v19.241
				c0,6.538,2.562,9.806,7.685,9.806c4.936,0,7.404-3.152,7.404-9.457v-19.589h5.577V197.468z" />
                <path d="M725.421,210.946h-6.115l-3.022-8.482h-13.215l-2.905,8.482h-6.092l12.582-33.323h6.28L725.421,210.946z
				 M714.807,197.956l-4.663-13.291c-0.141-0.434-0.289-1.131-0.445-2.092h-0.094c-0.14,0.884-0.297,1.58-0.469,2.092l-4.616,13.291
				H714.807z" />
                <path d="M758.53,210.946h-6.092l-16.05-24.492c-0.406-0.619-0.742-1.262-1.008-1.929h-0.14c0.125,0.713,0.187,2.239,0.187,4.578
				v21.843h-5.389v-33.323h6.49l15.511,23.911c0.656,0.992,1.078,1.673,1.265,2.045h0.093c-0.156-0.883-0.234-2.378-0.234-4.485
				v-21.471h5.366V210.946z" />
                <path d="M793.066,208.669c-3.499,1.89-7.397,2.835-11.692,2.835c-4.967,0-8.99-1.533-12.067-4.601
				c-3.078-3.067-4.616-7.126-4.616-12.177c0-5.158,1.683-9.391,5.049-12.698c3.366-3.308,7.642-4.962,12.828-4.962
				c3.733,0,6.873,0.542,9.419,1.627v5.693c-2.577-1.704-5.647-2.557-9.208-2.557c-3.577,0-6.51,1.17-8.799,3.509
				s-3.433,5.367-3.433,9.086c0,3.826,0.984,6.835,2.952,9.028c1.968,2.193,4.639,3.288,8.013,3.288
				c2.311,0,4.311-0.442,5.998-1.324v-7.924h-7.076v-4.648h12.629V208.669z" />
                <path d="M835.054,182.318H825.4v28.628h-5.576v-28.628h-9.63v-4.695h24.86V182.318z" />
                <path d="M838.428,209.621v-5.693c0.516,0.465,1.128,0.883,1.839,1.254c0.711,0.372,1.464,0.686,2.261,0.941
				c0.796,0.256,1.593,0.453,2.39,0.593c0.796,0.139,1.53,0.209,2.202,0.209c2.344,0,4.089-0.387,5.237-1.161
				c1.148-0.775,1.722-1.898,1.722-3.37c0-0.79-0.191-1.475-0.574-2.056c-0.383-0.581-0.918-1.111-1.605-1.592
				c-0.688-0.479-1.496-0.941-2.425-1.382c-0.93-0.442-1.925-0.903-2.987-1.383c-1.14-0.605-2.203-1.216-3.186-1.836
				c-0.984-0.619-1.839-1.305-2.566-2.056s-1.297-1.599-1.711-2.544c-0.414-0.945-0.621-2.053-0.621-3.323
				c0-1.564,0.355-2.924,1.066-4.078c0.711-1.154,1.648-2.107,2.812-2.859c1.164-0.751,2.488-1.309,3.972-1.673
				c1.484-0.363,2.999-0.546,4.546-0.546c3.515,0,6.077,0.396,7.685,1.185v5.461c-1.906-1.364-4.358-2.045-7.357-2.045
				c-0.828,0-1.652,0.078-2.472,0.232c-0.82,0.155-1.555,0.411-2.203,0.767c-0.648,0.356-1.176,0.814-1.582,1.371
				c-0.406,0.558-0.609,1.231-0.609,2.022c0,0.744,0.156,1.387,0.469,1.928c0.312,0.542,0.769,1.039,1.37,1.487
				c0.601,0.449,1.336,0.887,2.203,1.313c0.867,0.426,1.871,0.887,3.011,1.383c1.172,0.605,2.276,1.24,3.315,1.905
				c1.039,0.667,1.953,1.403,2.742,2.208c0.789,0.806,1.413,1.7,1.874,2.684c0.46,0.984,0.691,2.102,0.691,3.358
				c0,1.689-0.344,3.113-1.031,4.275c-0.688,1.162-1.613,2.107-2.777,2.836c-1.164,0.728-2.504,1.254-4.019,1.58
				c-1.515,0.325-3.116,0.488-4.803,0.488c-0.563,0-1.254-0.043-2.074-0.127c-0.82-0.085-1.66-0.21-2.519-0.372
				c-0.859-0.163-1.672-0.36-2.437-0.593C839.514,210.179,838.897,209.916,838.428,209.621z" />
                <path d="M889.531,209.551c-2.53,1.301-5.678,1.952-9.443,1.952c-4.874,0-8.779-1.526-11.716-4.578
				c-2.937-3.052-4.405-7.056-4.405-12.014c0-5.328,1.652-9.635,4.955-12.92c3.304-3.284,7.478-4.927,12.524-4.927
				c3.249,0,5.943,0.457,8.084,1.371v5.484c-2.265-1.332-4.765-1.999-7.498-1.999c-3.64,0-6.588,1.155-8.845,3.462
				c-2.257,2.309-3.386,5.391-3.386,9.248c0,3.672,1.055,6.596,3.163,8.772c2.109,2.177,4.881,3.265,8.318,3.265
				c3.17,0,5.92-0.744,8.247-2.231V209.551z" />
                <path d="M922.897,210.946h-5.6v-14.454h-15.816v14.454h-5.576v-33.323h5.576v14.012h15.816v-14.012h5.6V210.946z" />
                <path d="M959.683,210.946h-6.092l-16.05-24.492c-0.406-0.619-0.742-1.262-1.008-1.929h-0.14c0.125,0.713,0.187,2.239,0.187,4.578
				v21.843h-5.389v-33.323h6.49l15.511,23.911c0.656,0.992,1.078,1.673,1.265,2.045h0.093c-0.156-0.883-0.234-2.378-0.234-4.485
				v-21.471h5.366V210.946z" />
                <path d="M981.848,211.503c-4.842,0-8.72-1.557-11.633-4.671c-2.914-3.113-4.37-7.165-4.37-12.153
				c0-5.36,1.483-9.636,4.452-12.827c2.968-3.191,6.998-4.788,12.09-4.788c4.717,0,8.517,1.55,11.399,4.648
				c2.882,3.099,4.323,7.15,4.323,12.153c0,5.437-1.476,9.736-4.428,12.897C990.729,209.923,986.785,211.503,981.848,211.503z
				 M982.106,181.922c-3.078,0-5.581,1.139-7.51,3.416s-2.894,5.274-2.894,8.993c0,3.703,0.937,6.685,2.812,8.947
				c1.874,2.262,4.327,3.392,7.357,3.392c3.218,0,5.756-1.076,7.615-3.229c1.859-2.153,2.788-5.166,2.788-9.04
				c0-3.982-0.902-7.056-2.706-9.225C987.765,183.007,985.277,181.922,982.106,181.922z" />
                <path d="M1022.876,210.946h-18.604v-33.323h5.576v28.652h13.027V210.946z" />
                <path d="M1040.145,211.503c-4.842,0-8.72-1.557-11.633-4.671c-2.914-3.113-4.37-7.165-4.37-12.153
				c0-5.36,1.484-9.636,4.452-12.827c2.968-3.191,6.998-4.788,12.09-4.788c4.717,0,8.517,1.55,11.399,4.648
				c2.882,3.099,4.323,7.15,4.323,12.153c0,5.437-1.476,9.736-4.428,12.897C1049.025,209.923,1045.081,211.503,1040.145,211.503z
				 M1040.402,181.922c-3.078,0-5.581,1.139-7.51,3.416c-1.929,2.277-2.894,5.274-2.894,8.993c0,3.703,0.937,6.685,2.812,8.947
				s4.327,3.392,7.357,3.392c3.218,0,5.756-1.076,7.615-3.229c1.859-2.153,2.788-5.166,2.788-9.04c0-3.982-0.902-7.056-2.706-9.225
				C1046.061,183.007,1043.573,181.922,1040.402,181.922z" />
                <path d="M1088.787,208.669c-3.499,1.89-7.397,2.835-11.692,2.835c-4.967,0-8.99-1.533-12.067-4.601
				c-3.078-3.067-4.616-7.126-4.616-12.177c0-5.158,1.683-9.391,5.049-12.698c3.366-3.308,7.642-4.962,12.828-4.962
				c3.734,0,6.873,0.542,9.42,1.627v5.693c-2.577-1.704-5.647-2.557-9.208-2.557c-3.577,0-6.51,1.17-8.798,3.509
				c-2.288,2.339-3.433,5.367-3.433,9.086c0,3.826,0.984,6.835,2.953,9.028c1.968,2.193,4.639,3.288,8.013,3.288
				c2.311,0,4.311-0.442,5.998-1.324v-7.924h-7.077v-4.648h12.629V208.669z" />
                <path d="M1119.435,177.623l-11.013,21.216v12.107h-5.576v-11.99l-10.731-21.332h6.35l6.608,14.291
				c0.078,0.171,0.312,0.814,0.703,1.929h0.07c0.141-0.495,0.399-1.138,0.773-1.929l6.912-14.291H1119.435z" />
            </g>
        </g>
        <linearGradient id="SVGID_1_" gradientUnits="userSpaceOnUse" x1="51.464" y1="149.2875" x2="148.9153" y2="82.9623">
            <stop offset="0.0116" style="stop-color:#008D75" />
            <stop offset="0.4647" style="stop-color:#009B6C" />
            <stop offset="1" style="stop-color:#00A764" />
        </linearGradient>
        <path style="fill:url(#SVGID_1_);" d="M39.407,147.872c3.204-4.3,23.801-31.831,29.506-36.585c6.192-5.16,12.383-5.16,17.543,0
		c5.16,5.16,12.383,22.703,13.415,22.703c1.032,0,3.096-10.319,4.128-12.383c1.032-2.064,4.128-5.16,8.256-1.032
		c4.128,4.128,8.255,17.543,11.351,17.543c3.096,0,2.285-14.017,6.192-17.543c2.78-2.509,10.361-3.628,16.048,11.187l5.879-6.519
		c-3.665-4.166-14.43-17.276-18.831-16.019c-7.224,2.064-10.32,13.415-11.352,13.415c-1.032,0-6.191-20.639-13.415-20.639
		s-6.192,6.192-8.255,7.224c-2.064,1.032-13.415-28.895-21.671-24.767c-7.813,3.906-38.726,43.85-43.769,49.874L39.407,147.872z" />
        <g>
            <linearGradient id="SVGID_2_" gradientUnits="userSpaceOnUse" x1="182.0774" y1="97.5654" x2="197.0774" y2="97.5654">
                <stop offset="0" style="stop-color:#008D87" />
                <stop offset="0.4584" style="stop-color:#009B7A" />
                <stop offset="1" style="stop-color:#00A76E" />
            </linearGradient>
            <circle style="fill:url(#SVGID_2_);" cx="189.577" cy="97.565" r="7.5" />
            <linearGradient id="SVGID_3_" gradientUnits="userSpaceOnUse" x1="165.5774" y1="97.5654" x2="176.5774" y2="97.5654">
                <stop offset="0" style="stop-color:#008D87" />
                <stop offset="0.4584" style="stop-color:#009B7A" />
                <stop offset="1" style="stop-color:#00A76E" />
            </linearGradient>
            <circle style="fill:url(#SVGID_3_);" cx="171.077" cy="97.565" r="5.5" />
            <linearGradient id="SVGID_4_" gradientUnits="userSpaceOnUse" x1="149.0774" y1="97.5654" x2="156.0774" y2="97.5654">
                <stop offset="0" style="stop-color:#008D87" />
                <stop offset="0.4584" style="stop-color:#009B7A" />
                <stop offset="1" style="stop-color:#00A76E" />
            </linearGradient>
            <circle style="fill:url(#SVGID_4_);" cx="152.577" cy="97.565" r="3.5" />
        </g>
        <g>
            <linearGradient id="SVGID_5_" gradientUnits="userSpaceOnUse" x1="174.5864" y1="62.7152" x2="189.59" y2="62.7152">
                <stop offset="0" style="stop-color:#008D87" />
                <stop offset="0.4584" style="stop-color:#009B7A" />
                <stop offset="1" style="stop-color:#00A76E" />
            </linearGradient>
            <circle style="fill:url(#SVGID_5_);" cx="182.088" cy="62.715" r="7.5" />
            <linearGradient id="SVGID_6_" gradientUnits="userSpaceOnUse" x1="159.7566" y1="70.3958" x2="170.7592" y2="70.3958">
                <stop offset="0" style="stop-color:#008D87" />
                <stop offset="0.4584" style="stop-color:#009B7A" />
                <stop offset="1" style="stop-color:#00A76E" />
            </linearGradient>
            <circle style="fill:url(#SVGID_6_);" cx="165.258" cy="70.396" r="5.5" />
            <linearGradient id="SVGID_7_" gradientUnits="userSpaceOnUse" x1="144.9267" y1="78.0763" x2="151.9285" y2="78.0763">
                <stop offset="0" style="stop-color:#008D87" />
                <stop offset="0.4584" style="stop-color:#009B7A" />
                <stop offset="1" style="stop-color:#00A76E" />
            </linearGradient>
            <circle style="fill:url(#SVGID_7_);" cx="148.428" cy="78.076" r="3.5" />
        </g>
        <g>
            <linearGradient id="SVGID_8_" gradientUnits="userSpaceOnUse" x1="155.8122" y1="34.4949" x2="170.8123" y2="34.4949">
                <stop offset="0" style="stop-color:#008D87" />
                <stop offset="0.4584" style="stop-color:#009B7A" />
                <stop offset="1" style="stop-color:#00A76E" />
            </linearGradient>
            <circle style="fill:url(#SVGID_8_);" cx="163.312" cy="34.495" r="7.5" />
            <linearGradient id="SVGID_9_" gradientUnits="userSpaceOnUse" x1="144.0943" y1="46.9073" x2="155.0944" y2="46.9073">
                <stop offset="0" style="stop-color:#008D87" />
                <stop offset="0.4584" style="stop-color:#009B7A" />
                <stop offset="1" style="stop-color:#00A76E" />
            </linearGradient>
            <circle style="fill:url(#SVGID_9_);" cx="149.594" cy="46.907" r="5.5" />
            <linearGradient id="SVGID_10_" gradientUnits="userSpaceOnUse" x1="132.3764" y1="59.3198" x2="139.3765" y2="59.3198">
                <stop offset="0" style="stop-color:#008D87" />
                <stop offset="0.4584" style="stop-color:#009B7A" />
                <stop offset="1" style="stop-color:#00A76E" />
            </linearGradient>
            <circle style="fill:url(#SVGID_10_);" cx="135.876" cy="59.32" r="3.5" />
        </g>
        <g>
            <linearGradient id="SVGID_11_" gradientUnits="userSpaceOnUse" x1="126.8461" y1="14.7535" x2="141.8494" y2="14.7535">
                <stop offset="0" style="stop-color:#008D87" />
                <stop offset="0.4584" style="stop-color:#009B7A" />
                <stop offset="1" style="stop-color:#00A76E" />
            </linearGradient>
            <circle style="fill:url(#SVGID_11_);" cx="134.348" cy="14.754" r="7.5" />
            <linearGradient id="SVGID_12_" gradientUnits="userSpaceOnUse" x1="120.6949" y1="31.3608" x2="131.6974" y2="31.3608">
                <stop offset="0" style="stop-color:#008D87" />
                <stop offset="0.4584" style="stop-color:#009B7A" />
                <stop offset="1" style="stop-color:#00A76E" />
            </linearGradient>
            <circle style="fill:url(#SVGID_12_);" cx="126.196" cy="31.361" r="5.5" />
            <linearGradient id="SVGID_13_" gradientUnits="userSpaceOnUse" x1="114.5437" y1="47.9681" x2="121.5453" y2="47.9681">
                <stop offset="0" style="stop-color:#008D87" />
                <stop offset="0.4584" style="stop-color:#009B7A" />
                <stop offset="1" style="stop-color:#00A76E" />
            </linearGradient>
            <circle style="fill:url(#SVGID_13_);" cx="118.045" cy="47.968" r="3.5" />
        </g>
        <linearGradient id="SVGID_14_" gradientUnits="userSpaceOnUse" x1="1.5774" y1="107.2608" x2="208.8892" y2="107.2608">
            <stop offset="0" style="stop-color:#008D87" />
            <stop offset="0.4584" style="stop-color:#009B7A" />
            <stop offset="1" style="stop-color:#00A76E" />
        </linearGradient>
        <path style="fill:url(#SVGID_14_);" d="M206.069,175.799l-20.942-18.798c-2.999-2.692-3.676-7.111-1.654-10.598
		c3.139-5.413,5.773-11.156,7.837-17.164c1.882-5.48-2.268-11.173-8.062-11.173h-33.961c-3.042,0-5.834,1.637-7.359,4.269
		c-8.962,15.476-26.055,25.654-45.444,24.665c-25.323-1.292-45.791-21.954-46.861-47.288c-1.086-25.701,17.436-47.287,41.841-51.054
		c4.123-0.636,7.114-4.275,7.114-8.447V9.013c0-4.988-4.284-8.954-9.247-8.462C39.591,5.489,0.847,47.801,1.588,99.01
		c0.763,52.738,43.998,95.655,96.74,96.053c14.26,0.107,27.814-2.854,40.051-8.254c3.047-1.345,6.598-0.771,9.077,1.454
		l26.265,23.575c3.491,3.133,8.86,2.844,11.994-0.647l21.003-23.399C209.85,184.302,209.56,178.932,206.069,175.799z" />
    </g>
</svg>